<?xml version="1.0" encoding="UTF-8"?>
<!DOCTYPE svg PUBLIC "-//W3C//DTD SVG 1.1//EN" "http://www.w3.org/Graphics/SVG/1.1/DTD/svg11.dtd">
<!-- Creator: CorelDRAW 2021 (64-Bit) -->
<svg xmlns="http://www.w3.org/2000/svg" xml:space="preserve" width="40.0472mm" height="40.0472mm" version="1.1" style="shape-rendering:geometricPrecision; text-rendering:geometricPrecision; image-rendering:optimizeQuality; fill-rule:evenodd; clip-rule:evenodd"
viewBox="0 0 4004.72 4004.72"
 xmlns:xlink="http://www.w3.org/1999/xlink"
 xmlns:xodm="http://www.corel.com/coreldraw/odm/2003">
 <defs>
  <style type="text/css">
   <![CDATA[
    .fil1 {fill:#221816}
    .fil0 {fill:white}
   ]]>
  </style>
 </defs>
 <g id="图层_x0020_1">
  <metadata id="CorelCorpID_0Corel-Layer"/>
  <g id="_2820478432752">
   <path class="fil0" d="M44.27 1936.36c0,344.23 42.44,624.7 181.72,900.55 90.3,178.84 108.81,213.07 221.9,364.68l286.83 299.74c185.11,144.65 183.6,151.43 433.09,277.4 226.09,114.16 485.03,173.3 748.32,181.72l131.77 0c391.64,-12.41 782.42,-134.99 1079.23,-353.96l257.12 -213.78 213.78 -257.12c193.17,-261.85 353.96,-694.61 353.96,-1058.77 0,-344.23 -42.44,-624.7 -181.72,-900.55 -90.3,-178.84 -108.81,-213.07 -221.9,-364.68l-164.12 -191.12 -257.12 -213.78c-261.85,-193.17 -694.61,-353.96 -1058.77,-353.96 -344.23,0 -624.7,42.44 -900.55,181.72 -220.13,111.15 -258.48,136.65 -428.41,273.82 -406.23,327.92 -695.13,906.37 -695.13,1428.09z"/>
   <path class="fil1" d="M1126.75 829.54c12.09,27.08 7.46,54.99 8.57,92.46 -56.76,34.27 -107.05,78.36 -165.55,121.88l-418.03 317.61c-26.82,19.49 -61.24,48.63 -86.41,62.37l0.24 403.08 743.91 -551.18 -10.62 -173.58c137.31,-115.27 343.76,-259.42 495.01,-374.55 35.89,-27.31 140.69,-113.16 178.78,-126.47l0.28 939.83c-339.46,82.85 -486.72,497.28 -216.28,773.97 37.08,37.93 70.32,50.24 106.42,84.06l2.07 860.78c-41.46,-17.79 -23.87,-36.09 -68.55,-28.96 -14.05,29.97 -5.27,36.95 -2.29,62.2l2.16 452.27 148.57 91.46 0.72 114.23 888 -671.46c39.12,-32.79 83.05,-62.24 125.07,-95.67 -14.05,-104.04 -7.65,-89.76 69.12,-148.13 82.24,-62.52 565.19,-438.99 602.62,-446.8l0.63 -396.95c-42.92,10.39 -489.04,352.93 -565.89,409.93 -57.23,42.45 -137.48,93.08 -185.96,144.08l11.9 164.97c-60.33,53.26 -651.59,499.24 -677.09,499.66l-0.86 -982.48c39.26,-30.29 122.61,-44.38 198.98,-132.35 221.03,-254.57 100.94,-587.14 -88.83,-687.12l-2.34 -858.66c40.99,19.64 21.52,27.57 70.55,29.97l-0.09 -512.46 -148.6 -90.57 -0.43 -115.45c-85.59,57.75 -168.56,128.96 -254,191.16l-255.26 190.69c-83.17,68.65 -167.23,128.46 -252.85,193.37 -84.67,64.22 -171.22,132.29 -253.67,192.81z"/>
   <path class="fil0" d="M1871.36 2276.99l-0.63 -79.51c-41.05,-23.48 -110.37,-73.2 -114.01,-134.88l77.56 0.11c75.48,103.39 187.16,107.93 258.9,30.97 28.09,-30.13 7.38,-25.4 99.61,-25.51 -14.68,94.75 -91.41,60.48 -78.19,193.08 88.13,-19.86 169.02,-147.92 170.99,-266.89 2.08,-125.18 -82.48,-264.77 -175.62,-281.82 0.02,111.79 -6.1,65.27 47.09,127.16 24.2,28.16 49.36,73.08 51.83,121.55l-74.45 -0.38c-16.77,-28.82 -38.26,-131.56 -156.98,-132.22 -123.73,-0.7 -148.01,111.54 -165.22,132.84l-66.23 -0.07c-0.32,-52.12 15.94,-81.25 41.4,-115.69 79.94,-108.11 82.06,-8.05 83.96,-149.27 -57.4,13 -108.1,57.88 -145.19,103.82 -143.75,178.08 -14.97,452.34 145.18,476.71z"/>
   <path class="fil0" d="M1869.93 3832.98l0.31 55.82c36.66,-6.59 95.74,-61.37 125.14,-84.07 104.48,-80.66 270.72,-197.7 357.04,-271.04 38.44,-32.67 80.62,-61.52 117.41,-89.04l358.58 -269.5 -0.31 -59.49c-40.94,13.52 -958.15,717.31 -958.17,717.32z"/>
   <path class="fil0" d="M1158.72 836.46l0.94 59.43c40.4,-10.36 90.95,-61.01 126.96,-88.41l737.79 -558.88c53.84,-39.64 92.36,-39.54 89.41,-126.07 -25.56,7.33 -644.15,478.3 -714.61,533.68l-240.49 180.25z"/>
   <path class="fil0" d="M1874.95 3375.8l-1.18 -943.68 -61.39 -12.27 -0.18 879.91c2.95,27.96 8.7,36.46 39.11,60.33 18.23,14.31 1.2,4.3 23.64,15.71z"/>
   <path class="fil0" d="M2114.24 1551.99c27.45,7.28 35.72,15.09 61.64,20.88l-0.14 -743.56c0.02,-28.48 3.75,-99.62 -0.58,-123.27 -5.47,-29.81 -36.34,-57.26 -61.71,-69.71l0.79 915.66z"/>
  </g>
 </g>
</svg>
